<svg width="840" height="659" viewBox="0 0 840 659" fill="none" xmlns="http://www.w3.org/2000/svg">
  <g id="Frame 6" clip-path="url(#clip0_25_8)">
    <path fill="#fff" d="M0 0h840v659H0z"/>
    <path id="Vector 6" d="M467.612 32.431c47.6 52 2.167 110.334-26.5 133 9.2-.8 17.5 5.667 20.5 9 18.4-9.6 38.667-14.333 46.5-15.5 32.4-5.6 45.833 10 48.5 18.5.167-.666 2.9-3.9 12.5-11.5s28.333-6.5 36.5-5c-2.8-5.2-1.833-14.5-1-18.5 4.4-16.8 22.833-20.333 31.5-20 6.5 1.334 22 1.9 32-6.5s18.833-4.833 22-2c11.6 7.6 6.5 49.834 2.5 70 15.6 4.4 11.833 20.167 8 27.5-18.4 25.2-13 60.834-8 75.5 28.8 52.4 14.667 117.834 4 144 50.4 27.6 99.667-17.5 118-43.5 69.6 80.8-22 104.667-76.5 106.5 22.4 72-29.333 104-58 111-15.6 29.6-73.167 16.334-100 6-16.8 10.8-47.667-1.5-61-9-6.667 12.334-27.7 39.1-58.5 47.5-30.8 8.4-62.833-14.5-75-27-17.2 14-52.833-7.833-68.5-20.5-25.2 64.4-96.167 61.834-128.5 52.5-97.2-24.8-100.833-129.333-90.5-178.5-64-6.8-90.333-50.833-95.5-72-13.2-57.2 26.833-91.5 48.5-101.5 1.6 58.8 50.667 80.167 75 83.5 18.4-53.2 73.333-85.833 98.5-95.5-80 .4-85.667-66.833-78.5-100.5 11.6-89.6 102.167-150.666 146-170 38.667-17.5 127.9-39.5 175.5 12.5Z" fill="#FFCF44"/>
  </g>
  <defs>
    <clipPath id="clip0_25_8">
      <path fill="#fff" d="M0 0h840v659H0z"/>
    </clipPath>
  </defs>
</svg>
