<?xml version="1.0" encoding="UTF-8"?><svg id="Layer_1" xmlns="http://www.w3.org/2000/svg" viewBox="0 0 261 198.99"><defs><style>.cls-1{fill:none;stroke:#ee3a25;stroke-miterlimit:10;stroke-width:.5px;}</style></defs><path class="cls-1" d="M84.88,133.52c2.12-1.12,4.19-2.41,6.06-3.91,1.82-1.46,3.46-3.2,4.98-4.97,2.78-3.24,4.27-7.03,4.29-11.79,.23-3.33-1.83-6.48-4.13-8.98-1.46-1.58-3.31-2.62-5.3-3.36-1.92-.71-3.87-1.48-5.87-1.8-3.12-.51-6.3-.87-9.46-.47-2.36,.3-4.73,.63-7.03,1.23-1.85,.48-3.62,1.3-5.36,2.13-1.37,.65-2.65,1.51-3.93,2.33-.9,.58-1.69,1.35-2.61,1.9-2.81,1.66-4.84,4.18-6.96,6.53-1.77,1.95-3.16,4.28-4.54,6.55-1.69,2.78-3.24,5.64-4.74,8.53-.76,1.47-1.26,3.07-1.9,4.6-.47,1.1-.93,1.32-2.03,.96-1.81-.59-3.65-1.13-5.41-1.84-2.14-.86-4.29-1.76-6.31-2.87-1.72-.94-3.3-2.17-4.87-3.36-1.02-.77-2.58-2.16-3.42-3.13-1.23-1.42-2.37-2.93-3.47-4.46-.84-1.16-1.6-2.38-2.32-3.62-.55-.95-1.6-2.8-1.92-3.84-1.15-3.76-1.04-4.39-.94-7.26,.02-.6,.2-1.15,.18-1.64-5.58,5.24-10.28,14.51-6.51,21.7,2.37,4.52,6.68,8.23,11.28,11.4,3.19,2.2,6.81,3.66,10.62,4.38h.05c2.31,.45,4.62,.87,6.94,1.21,1.09,.16,2.22,.08,3.33,.17,1.64,.14,3.07,1.08,2.5,2.67-.17,.48-.38,1.25-.51,1.74-.23,.89-.42,1.84-.61,2.73-1.46,6.6-1.28,13.17-.33,19.77,.52,3.58,2.05,9.26,3.46,12.6,.77,1.82,1.65,3.6,2.82,5.23,.89,1.24,1.58,2.64,2.63,3.73,1.66,1.72,3.46,3.33,5.33,4.83,3.11,2.49,6.71,3.96,10.59,4.81,4.43,.97,8.85,1.42,13.4,.71,4.68-.73,8.88-2.55,12.53-5.41,2.31-1.82,4.33-4.08,6.2-6.38,1.85-2.27,3.35-4.83,4.36-7.6,1.82-5.02,3.09-10.09,.23-15.25-.74-1.34-1.85-2.47-3.23-3.14-1.17-.56-2.44-.92-3.71-1.23-.85,6.64-6.03,13.03-11.27,16.51-4.79,3.18-10.8,4.77-16.45,3.3-1.91-.5-3.34-1.28-4.47-2.33-.34-.25-.67-.52-.99-.83-.12-.12-.22-.24-.33-.36-.01-.01-.03-.03-.04-.04-.06-.06-.11-.13-.17-.19-.08-.09-.16-.18-.24-.27-.42-.49-.75-.99-.99-1.5-.55-1.01-.91-2.09-1.22-3.23-1.47-4.08-1.23-8.33-.61-12.5,.61-4.14,2.19-8.14,3.2-12.2,.23-.94,.65-1.81,1.12-2.65,.55-.97,.83-2.49,2.37-2.71,1.9-.27,3.8-.64,5.71-.84,4.38-.46,8.63-1.45,12.72-3.05,2.48-.97,4.95-2,7.29-3.24Zm-17.39,1.03c-1.22,.29-2.52,.29-3.79,.32-1.16,.02-1.46-.47-.91-1.47,1.36-2.45,3.22-4.49,5.39-6.24,.3-.25,.62-.47,.91-.74,1.92-1.77,4.25-2.42,6.78-2.55,1.39-.04,2.58,.21,3.4,1.51,.72,1.14,.67,2.3,.04,3.33-.65,1.06-1.5,1.95-2.66,2.63-2.86,1.68-6.01,2.47-9.16,3.22Z"/><path class="cls-1" d="M113.64,23.44c3.09,.55,6.12,1.35,8.32,4.04,1.06,1.29,1.77,2.52,1.98,3.97,.06,.93-.06,2.64-.48,3.71-.14,.36-.52,1.05-.67,1.31-.21,.41-.44,.81-.7,1.18-5.34,8.71-12.58,15.47-21.77,19.91,.02,0,.04,0,.06-.01,7.26-1.11,14.42-3.29,21.15-6.23,4.7-2.05,8.58-4.63,12.35-7.68,.56-.57,1.11-1.16,1.64-1.78,1.82-2.09,3.71-4.07,5.02-6.53,1-1.88,2.1-3.71,2.92-5.66,1.29-3.04,1.79-6.29,2.01-9.58,.14-2.04,.01-4.1-.54-6.07-1.06-3.77-3.29-6.99-6.42-9.02-2.35-1.52-5.01-2.67-7.68-3.56-2.16-.72-4.53-.8-7.79-1.32-1.98-.03-4.95-.17-7.91-.11-2.23,.05-4.47,.25-6.68,.57-2,.29-3.92,1.08-5.89,1.49-1.73,.36-3.42,.9-5.07,1.53-2.55,.96-5.08,2.02-7.46,3.33-3.3,1.81-6.48,3.84-9.64,5.89-1.92,1.25-3.79,2.58-5.53,4.07-2.72,2.33-5.28,4.88-7.77,7.45-1.96,2.02-3.8,4.15-5.52,6.38-2.29,2.95-4.6,5.9-6.26,9.3-.8,1.63-1.97,3.09-2.71,4.74-1.37,3.06-2.54,6.2-3.41,9.47-1.24,4.65-1.84,9.26-.68,14.01,.87,3.55,2.6,6.46,5.68,8.56,3.04,2.07,6.4,2.93,9.97,3.08-1.61-1.7-2.94-3.68-3.84-6.04-1.62-4.24-1.64-8.94-1.03-13.37,.54-3.92,1.9-6.94,3.53-10.08,.06-.2,.12-.41,.18-.61,.65-2,1.68-3.92,2.82-5.7,1.35-2.12,2.79-4.26,4.55-6.04,2.4-2.43,5.13-4.53,7.73-6.76,.15-.13,.31-.25,.48-.35,3.27-2,6.61-3.84,10.26-5.11,3.5-1.22,7.06-2.17,10.73-2.65,4.7-.62,9.42-.54,14.08,.29Z"/><path class="cls-1" d="M260.6,129.64c-.25-.99-.72-1.93-1.29-2.78-.29-.43-.56-.82-.83-1.19-1.84,4.11-4.72,7.72-8.49,10.57-3.18,2.4-6.88,4.25-10.76,5.21-4.13,1.02-8.05,.33-12.09,.02-3.34-.06-6.67-.16-10.01-.31-2.62-.12-5.24-.46-7.86-.56-.08,0-.17,0-.25-.01h-.01c-.63-.03-1.27,.06-1.89,.21-2.74,.69-5.43,1.81-7.7,3.41-1.77,1.25-3.05,2.74-4.2,4.36-.8,1.12-1.43,2.36-1.78,3.69v.02c-.52,1.98-1.11,3.95-1.3,5.9-.27,2.71-.27,5.61,.18,8.4,.02,.13,.04,.26,.07,.39,.29,1.65,.75,3.25,1.42,4.75,.11,.24,.18,.47,.25,.7,.5,1.04,1.1,2.09,1.9,3.27,1.75,2.58,4.12,4.71,6.91,6.09,1.54,.76,3.22,1.42,4.89,1.63,3.83,.48,7.64,.04,11.16-1.69,.4-.2,.86-.33,1.34-.66,1.07-.76,2.03-1.68,2.94-2.63,2.12-2.18,3.76-4.81,4.61-7.72,.75-2.6,1.05-5.29,.95-7.98-.08-2.06-.27-4.14-.68-6.16-.41-2.07-1.1-4.09-1.77-6.1-.31-.94-.93-1.78-1.29-2.71-.16-.41-.13-.98,.04-1.38,.08-.19,.7-.22,1.06-.21,1.69,.08,3.37,.35,5.06,.31,.96-.02,1.93,0,2.88,.16,4.17,.73,8.11,.49,12.92-.49,1.15-.37,2.94-.91,4.71-1.53,.54-.19,1.02-.57,1.53-.86,2.77-1.59,5.04-3.65,6.59-6.5,1.35-2.48,1.42-5.04,.76-7.64Zm-44.28,36.14c-.17,.94-.33,2.57-.78,4.12-.49,1.71-1.21,3.36-2.33,4.78-1.29,1.63-4.03,1.8-5.69,.59-1.46-1.07-1.95-2.62-2.47-4.17-.73-2.18-.62-4.46-.63-6.73-.01-3.46,.52-6.87,1.24-10.22,.52-2.4,1.38-4.72,3.27-6.49,1.07-1,2.13-1.11,3.27-.15,1.64,1.38,2.57,4.02,3.12,6.08,1.12,4.15,1.29,7.36,.99,12.19Z"/><path class="cls-1" d="M100.14,45.41c-.19,1.95-.54,3.79-.67,5.69-.46,7.28-.82,14.58-.29,21.88,.26,3.6,.92,7.15,2.12,10.53,.49,1.37,1.11,2.69,1.75,3.98,.22,.44,1.19,2.18,1.48,2.69,1.09,1.89,4.41,14.4,1.69,17.65-.1-7.62-12.54-13.62-18.05-13.55-2.44,.13-5.47-1.08-5.82-3.83-.36-2.76,.37-5.23,.14-7.8,.3-4.8,.59-9.36,.86-13.91,.22-3.75,.5-7.49,.62-11.24,.11-3.5,.16-7.02,0-10.51-.15-3.28-.59-4.85-.95-8.12-.1-.86-.46-1.68-.62-2.54-.24-1.22,.55-2.13,1.3-2.74,.49-.39,1.02-.68,1.59-.98,.24-.12,.49-.25,.74-.38,2.62-1.33,5.35-2.43,8.18-3.23,.98-.28,1.98-.5,3.03-.55,.91-.04,1.83,0,2.74,.08,1.87,.27,1.64,2.72,1.64,3.09l-1.47,13.79Z"/><path class="cls-1" d="M212.41,93.61c-.59-1.06-1.16-2.13-1.53-3.23-2.81-5.91-1.7-13.6,.23-19.83,1.43-3.6,2.97-7.04,2.79-10.65-.16-3.18-1.63-5.47-5.14-5.45-.95,0-3.09,.62-4.14,.9-2.49,.67-4.95,.89-7.26,1.8-1.21,.48-1,1.15-1,1.15,.13,.54,.8,2.91,.89,3.45,.31,1.77,.57,3.45,.73,5.23,.21,2.42,.21,4.59,.04,6.99-.29,4.18-2.05,9.08-2.48,13.26-.18,1.69-.64,5.74,.4,7.68,.95,1.84,1.65,2.6,3.57,3.05,1.75,.41,5.21,.18,6.8,.45,2.64,.4,7.03,2.51,8.5,4.89-.14-2.28-.37-4.13-.91-6.33-.27-1.11-1.12-2.3-1.49-3.36Z"/><path class="cls-1" d="M196.52,46.37c.41,1.74,1.78,3.14,3.49,4.18,1.12,.68,2.39,1.09,3.69,1.24,1.85,.21,3.68,.02,5.28-.73,1.51-.7,2.5-2.06,3.23-3.56,1.32-2.71,1.76-5.78,1.42-8.83-.32-2.88-1.04-3.87-2.78-3.22-.89,.33-1.79,.65-2.65,1.04-1.48,.65-3.03,1.07-4.63,1.37-.72,.14-1.42,.34-2.07,.65-3.21,1.54-5.87,4.14-4.99,7.87Z"/><path class="cls-1" d="M214.97,112.81c-.35-2.77-1.46-5.17-3.2-7.31-1.58-1.94-3.54-3.29-5.95-3.82-3.17-.69-6.34-.33-9.33,1.26-.31,.17-.61,.36-.89,.57-1.01,.77-1.92,1.67-2.91,2.47-1.17,.94-2.11,2.08-2.96,3.28-1.11,1.55-2.02,3.23-2.86,4.94-.74,1.51-1.57,2.98-2.24,4.52-.45,1.03-.82,2.09-1.17,3.16s-.88,2.96-1.16,4.1c-.62,2.49-1.24,4.99-1.79,7.5-.31,1.39-.47,2.82-.72,4.22-.19,1.06-.58,3.08-1.66,3.05-.47-.01-.91-.15-1.41-.18s-4.49,0-5.31,.1c-.71,.09-7.6,1.46-8.34,2.28-.02-.1-.85,.67-1.06,1.46-.4,1.53-.58,1.4-.84,2.96-.57,3.39-1.21,8.52-1.23,11.96-.01,2.2,.12,4.87-.11,7.12-.18,1.8-2.17,3.3-3.65,3.65-.27,.06-.61-.03-.89-.13-1.46-.54-1.89-1.88-2.2-3.17-.91-3.72-.74-7.52-.49-11.29,.29-4.46,.98-8.89,1.32-13.34,.13-1.76,.46-4.76,.06-6.69-1.19-3.46-2.64-5.2-7-6.11l-.1-.02c-5.9-1.24-12.05,.22-16.77,3.97l-.04,.03c-2.07,1.85-5.06,4-2.79,2.78,4.02-1.93,8.32,1.42,9.39,2.51,1.92,1.95,2.75,3.48,3.02,6.01,.29,2.77,.28,5.59,.18,8.37-.11,3.3-.44,6.58-.69,9.87-.19,2.59-.54,5.18-.57,7.78-.02,2.11,.21,4.25,.57,6.34,.32,1.85,1.1,3.62,2.34,5.05,1.97,2.25,5.17,3.45,7.97,3.65,4.69,.33,8.77-1.17,10.13-1.95,1.72-.99,3.16-2.69,4.27-4.39,.03,.07,.06,.13,.09,.21,1.57,3.62,3.24,5.1,4.92,5.98,1.6,.84,3.66,1.8,7.99,1.64,.96-.04,1.78-.27,2.45-.76-9.47-6.06-7.23-22.52-7.23-22.52h0c0-.72,.12-1.68,.31-2.73h0c1.18-14.53,3.39-13.46,3.39-13.46l.84,19.48c.08,.86,.15,1.64,.19,2.33,.23,4.32,.78,5.74,2.85,9.71,1,1.92,2.57,3.31,4.26,4.82,3.36,3,17.88,6.57,23.42,3.2,.68-.41-5.12,.12-11.08-4.66-2.88-2.28-5.05-5.38-6.06-9.28-.16-.6-.33-1.2-.53-1.79-1.31-3.93-1.65-8.57-1.75-11.2-.2-5.05-.45-12.28,2.82-16.21,.51-.59,1.14-.95,2.09-1.1,.29-.05,.57-.1,.86-.16,.08-.02,.16-.04,.25-.06,.25-.06,.51-.12,.75-.19,2.53-.74,5.07-1.45,7.24-3.06,.69-.51,1.39-1.01,2.09-1.5,.7-.49,1.44-.93,2.1-1.46,1.93-1.56,3.51-3.49,4.75-5.58,1.05-1.77,2.39-3.48,2.68-5.64,.01-.11,.1-.2,.13-.31,.4-1.33,1.01-2.64,1.15-4,.22-2.11,.18-4.25,.19-6.38,0-.63,0-1.26-.08-1.88Zm-14.68,11.68c-.26,1.69-.71,3.36-1.37,4.94-1.02,2.43-2.33,4.41-4.11,6.07-.53,.49-1.12,.93-1.71,1.34-.51,.36-1.02,.16-1.16-.46-.09-.4-.09-.83-.04-1.24,.43-3.2,.89-6.39,1.4-9.57,.2-1.23,.46-2.46,.81-3.66,.7-2.4,1.5-4.77,2.28-7.15,.13-.4,.46-.77,.78-1.08,.87-.88,2.45-.45,2.73,.8,.11,.52,.22,1.05,.32,1.57,.52,2.76,.52,5.59,.09,8.37v.06Z"/><path class="cls-1" d="M153.39,91.41c-.21-3.68-.13-7.86-.06-10.42-.06-1.4-.07-2.81-.05-4.2,.04-2.6,.41-5.54,.52-8.14,.12-2.76,.05-5.45-1-8.2-.17-.44-1.13-1.15-1.53-1.37-.77-.4-1.66-.67-2.52-.75-.99-.1-2.01,.05-3.02,.12-1.33,.09-1.67-.19-2.2-1.38-.48-1.06-1.03-2.12-1.74-3.05-.89-1.16-2.08-2.05-3.55-2.36-2.76-.58-5.37,.1-7.91,1.14-.33,.13-.81,.46-1.07,.69-1.16,1.02-2.47,1.82-3.54,3.01-1.54,1.72-2.89,3.55-3.99,5.54-1.01,1.84-1.93,3.72-2.58,5.77-.81,2.54-1.62,5.06-1.94,7.69-.37,3.05-.88,6.1-.43,9.19,.43,3.01,.72,6.03,2.32,8.77,2.19,3.74,9.82,5.21,13.98,4.53,3.47-.57,6.01-2.6,8.05-5.27h0c.89,1.88,3.23,5.59,4.73,6.74,1.7,1.3,4.89,2.47,7.5,2.64,.02-3.56,.03-7.13,.04-10.69Zm-17.59-10.34c-.99,2.25-2.23,4.47-4.49,5.84-.95,.57-2.14,.05-2.36-1.03-.22-1.08-.28-2.22-.2-3.31,.24-3.48,.96-6.86,2.24-10.12,.49-1.24,.76-2.56,1.25-3.8,.29-.74,.79-1.4,1.23-2.07,.52-.79,1.05-1.58,1.66-2.3,.23-.27,.77-.55,1.03-.46,.33,.12,.62,.58,.77,.96,.87,2.24,.72,4.61,.79,5.82,.17,4.41-.63,7.55-1.91,10.49Z"/><path class="cls-1" d="M194.43,67.49c-.15-3.62-.6-7.15-2.44-10.38-1.78-3.13-4.23-5.09-7.95-5.09-1.17,0-2.39-.01-3.49,.31-2.62,.76-4.53,2.59-6.26,4.62-.57,.67-1.19,1.3-1.79,1.95l-.34-.08c-.17-.62-.09-1.26-.19-1.88-.22-1.35-.52-4.17-1.32-5.37-1.46-2.19-7.38-3.49-9.61-3.31s-4.72,.82-6.94,1.67c-.94,.36-9.35,4.65-8.42,4.3,1.72-.64,8.15,.58,9.71,1.43,1.92,1.05,3.19,2.45,3.66,8.93,.43,6-.31,12.03-.47,18.05-.07,2.49-.13,4.98-.22,7.47l-.47,6.14c.08,.86-.14,1.81-.14,1.81v-.04c-.19,1.8-.39,3.59-.55,5.39-.31,3.42-.58,6.83-.87,10.25l-.03,.23c-1.74,9.91-1.78,8.83-3.65,12.29,5.54,3.59,6.42,12.42,5.61,15.61,2.69-3.48,7.47-5.15,13.37-4.8-.43-4.74-.9-23.84-1.07-26.92-.27-4.89-.19-9.8-.22-14.7,0-.42,.21-1.07,.5-1.2,.32-.14,.87,.17,1.28,.36,.71,.33,1.35,.86,2.08,1.05,4.04,1.05,7.68,.08,10.79-2.6,1.37-1.19,2.56-2.66,3.6-4.16,1.14-1.64,2.14-3.42,2.97-5.24,.59-1.31,1.02-2.68,1.32-4.08,.56-2.59,1.04-5.21,1.38-7.84,.18-1.38,.22-2.78,.16-4.18Zm-13.59,9.62c-.6,2.08-1.28,4.16-2.64,5.92-.46,.59-.77,1.29-1.22,1.88-.83,1.1-1.92,1.91-3.2,2.41-.78,.3-1.42-.12-1.42-.95,0-5.37,.57-10.67,2.28-15.78,.61-1.84,1.42-3.64,2.39-5.31,.53-.9,1.51-1.64,2.44-2.19,1.1-.65,2.14-.16,2.34,1.1,.21,1.32,.31,2.65,.45,3.98-.07,3.06-.57,6.03-1.42,8.93Z"/><path class="cls-1" d="M147.99,191.72c-.34,.06-.68,.11-1.03,.14-2.62,.25-7.14-1.39-9.15-3.09-.7-.6-2.06-1.71-2.45-2.17-2.94-4.52-2.57-10.03-2.45-13.08,.3-4.41,.98-8.38,1.48-12.81,.36-3.25,.62-6.51,.9-9.51-.19-2.12-.26-3.97-.55-5.79-.27-1.68-1.07-3.24-2.22-4.44-2.51-2.63-5.82-2.98-9.12-2.2-2.58,.61-4.97,1.87-6.95,3.75-.65,.62-1.3,1.24-2.01,1.78-.27,.2-.75,.27-1.07,.17-.2-.06-.42-.54-.4-.82,.13-2.09,.3-4.18,.48-6.27,.05-.64,.37-.96,1.05-1.08,1.68-.29,3.39-.54,5.01-1.05,1.96-.62,3.87-1.44,5.75-2.28,.87-.39,1.65-1.01,2.43-1.59,.99-.73,2.02-1.44,2.87-2.31,1.08-1.12,2.01-2.38,3-3.59,1.54-1.89,2.53-4.12,3.14-6.42,.99-3.76,1.17-7.58-.62-11.23-.49-.99-.97-2.06-1.71-2.84-.78-.82-1.66-1.57-2.66-2.23-1.96-1.28-4.07-1.84-6.32-1.99-2.85-.18-5.48,.6-7.81,2.27-.72,.52-1.47,1.04-2.07,1.69-1.27,1.37-2.58,2.73-3.63,4.26-.32,.47-.62,.97-.9,1.47-.78,1.07-1.46,2.22-2.07,3.38-1.65,3.12-2.45,6.54-3.95,9.73-.03,.07-.07,.13-.11,.2-.78,2.04-1.65,3.19-2.16,3.75-4.15,4.04-14.08,12.73-22.87,12.84,0,0,11.35-.1,22.03-2.06-.21,1.1-.41,2.2-.52,3.31-.48,4.8-1,9.59-1.33,14.4-.32,4.77-.46,9.55-.67,14.33-.03,.73,.02,1.46-.04,2.18-.2,2.37,.04,4.67,.9,6.91,.56,1.46,1.64,2.6,2.83,3.48,1.95,1.46,4.58,2.79,5.97,3.51,2.77,1.43,5.14,1.99,7.35,1.86,1.46-.08,1.83-.74,1.3-2.14-.47-1.23-2.94-7.85-3.14-9.12-.7-4.44-1.45-8.9-1.79-13.38-.3-4.03-.09-8.11-.07-12.16,0-.37,.19-.74,.33-1.11,.37-1,1.28-1.33,2.16-1.7,3.2-1.36,5.26,.21,6.32,2.68,.6,1.39,.77,3.07,.75,4.61-.04,3.52-.33,7.04-.51,10.56-.21,3.99-1.4,8.85-.84,12.85,.24,1.72,.35,4.8,.91,6.41,1.56,5.79,4.56,7.81,6.93,9.04,1.81,.94,3.73,1.65,5.71,2.16,2.61,.58,9.13,.44,12.37-1.24,1.46-.76,1.15-.59,2.52-1.5,.89-.59,2.48-1.97,3.68-3.15,.15-.15,.27-.27,.38-.39-1.75,.51-3.53,.9-5.35,.98Zm-25.95-78.79c1.16-.91,2.21-.49,2.59,.96,.27,1.02,.36,2.09,.4,3.15,.03,.86-.15,1.72-.26,2.89-.59,2.26-1.54,4.63-3.35,6.7-1.46,1.67-3.27,2.56-5.2,3.36-.33,.13-.88,.09-1.15-.11-.2-.15-.22-.73-.11-1.04,1.16-3.29,2.33-6.58,3.55-9.85,.46-1.23,.93-2.46,1.57-3.6,.51-.9,1.15-1.82,1.95-2.44Z"/></svg>